<?xml version="1.0" encoding="UTF-8"?>
<svg version="1.1" xmlns="http://www.w3.org/2000/svg" width="512" height="512">
<path d="M0 0 C168.96 0 337.92 0 512 0 C512 112.86 512 225.72 512 342 C343.04 342 174.08 342 0 342 C0 229.14 0 116.28 0 0 Z " fill="#000000" transform="translate(0,85)"/>
<path d="M0 0 C3.0625 2 3.0625 2 5 4 C4.67 4.66 4.34 5.32 4 6 C4.66 6.33 5.32 6.66 6 7 C7.11848342 10.35545027 7.20816561 13.05358629 7.31640625 16.58984375 C7.33723267 17.24263809 7.35805908 17.89543243 7.3795166 18.56800842 C7.44547366 20.6910561 7.50432525 22.81422589 7.5625 24.9375 C7.6053481 26.38997512 7.64823558 27.84244907 7.69116211 29.29492188 C8.00158664 40.19798304 8.11798807 51.0926581 8 62 C9.11375 61.505 9.11375 61.505 10.25 61 C13 60 13 60 17 60 C17 55.71 17 51.42 17 47 C17.99 47 18.98 47 20 47 C20 50.96 20 54.92 20 59 C21.093125 58.690625 22.18625 58.38125 23.3125 58.0625 C32.74488892 55.72922485 42.34177017 55.89614807 52 56 C52 49.73 52 43.46 52 37 C52.99 37 53.98 37 55 37 C55 43.27 55 49.54 55 56 C59.95 56 64.9 56 70 56 C70 49.4 70 42.8 70 36 C67.96457031 35.95101562 65.92914063 35.90203125 63.83203125 35.8515625 C61.84950921 35.79591276 59.86698843 35.74019628 57.88452148 35.68261719 C56.51221419 35.64445712 55.13981129 35.60958204 53.76733398 35.578125 C51.7886771 35.53219318 49.81033558 35.47326363 47.83203125 35.4140625 C46.04889526 35.36693115 46.04889526 35.36693115 44.22973633 35.31884766 C41.10158672 35.0100289 38.82886241 34.3293088 36 33 C36.66 32.01 37.32 31.02 38 30 C37.34 29.34 36.68 28.68 36 28 C40.62259142 27.26176361 45.05868258 26.87188488 49.73828125 26.8671875 C50.96998047 26.86589844 52.20167969 26.86460937 53.47070312 26.86328125 C55.37239258 26.86908203 55.37239258 26.86908203 57.3125 26.875 C58.59962891 26.87113281 59.88675781 26.86726563 61.21289062 26.86328125 C63.05077148 26.86521484 63.05077148 26.86521484 64.92578125 26.8671875 C66.60281128 26.86887939 66.60281128 26.86887939 68.3137207 26.87060547 C71 27 71 27 73 28 C73 28.66 73 29.32 73 30 C74.175625 29.95875 75.35125 29.9175 76.5625 29.875 C80.72409674 29.86016365 84.06487667 30.68829222 88 32 C87.34 33.65 86.68 35.3 86 37 C86.66 37 87.32 37 88 37 C88 37.66 88 38.32 88 39 C86.783125 39.020625 85.56625 39.04125 84.3125 39.0625 C83.62800781 39.07410156 82.94351563 39.08570313 82.23828125 39.09765625 C80 39 80 39 75 38 C75 44.27 75 50.54 75 57 C77.97 57.33 80.94 57.66 84 58 C85.485 58.495 85.485 58.495 87 59 C87 53.72 87 48.44 87 43 C87.99 42.67 88.98 42.34 90 42 C90 47.94 90 53.88 90 60 C91.98 60.33 93.96 60.66 96 61 C96.66 61.33 97.32 61.66 98 62 C97.99000725 61.00188042 97.99000725 61.00188042 97.97981262 59.9835968 C97.91343321 53.05690341 97.86818837 46.1303004 97.83520508 39.20336914 C97.82012038 36.61837087 97.79964998 34.03339818 97.77368164 31.44848633 C97.73728558 27.7325204 97.72027015 24.01689293 97.70703125 20.30078125 C97.69154739 19.14540359 97.67606354 17.99002594 97.66011047 16.79963684 C97.65988388 15.71889389 97.65965729 14.63815094 97.65942383 13.5246582 C97.64943108 12.10235649 97.64943108 12.10235649 97.63923645 10.65132141 C98.07576224 7.44320858 99.09798166 5.60233565 101 3 C104.42329851 0.71780099 105.84137668 0.70258837 109.875 0.6875 C111.41800781 0.66236328 111.41800781 0.66236328 112.9921875 0.63671875 C116.41949466 1.05066624 118.24491572 1.95048609 121 4 C123.40951566 7.61427349 123.28921267 10.2460283 123.2746582 14.42138672 C123.27976913 15.17457184 123.28488007 15.92775696 123.29014587 16.70376587 C123.30405575 19.1958204 123.30308387 21.68759874 123.30078125 24.1796875 C123.30466786 25.91220198 123.30900245 27.6447155 123.31376648 29.37722778 C123.32123201 33.01046841 123.32093534 36.64361188 123.31567383 40.27685547 C123.3098834 44.92971454 123.32679811 49.582175 123.3500185 54.23496819 C123.36476205 57.81408 123.36562662 61.39309601 123.36250877 64.97223282 C123.36302183 66.68741774 123.36825662 68.40260805 123.37832069 70.11776352 C123.39067788 72.51871239 123.38389782 74.91888744 123.37231445 77.31982422 C123.37995819 78.02649231 123.38760193 78.7331604 123.39547729 79.46124268 C123.34916123 83.81162751 122.66595535 86.54210105 120 90 C116.1897541 92.56970073 112.67293643 93.65286126 108.03125 93.4921875 C104.20936809 92.56611611 101.48365345 89.95878715 99 87 C97.95023036 83.85069107 97.89868405 81.61185544 97.9375 78.3125 C97.94652344 77.31863281 97.95554687 76.32476562 97.96484375 75.30078125 C97.97644531 74.54152344 97.98804688 73.78226562 98 73 C94.67906779 71.8930226 91.37753715 70.91626717 88 70 C87.02522705 69.73533936 87.02522705 69.73533936 86.03076172 69.46533203 C60.50984268 62.80846464 33.82124992 64.49602394 9 73 C8.99742187 73.78503906 8.99484375 74.57007813 8.9921875 75.37890625 C8.74952123 81.97133994 8.18717842 86.03211221 3.47265625 90.79296875 C0.26367922 93.42313826 -2.65915246 93.38780876 -6.67578125 93.35546875 C-10.61350991 92.7532279 -12.2829323 90.84960759 -15 88 C-17.38546285 84.42180573 -17.30902753 81.83645849 -17.32226562 77.70214844 C-17.33219543 76.96192947 -17.34212524 76.22171051 -17.35235596 75.45906067 C-17.38157446 73.00912761 -17.39519998 70.55945371 -17.40625 68.109375 C-17.41775698 66.40407302 -17.42927239 64.6987711 -17.4407959 62.99346924 C-17.46181017 59.41571855 -17.47349849 55.83805763 -17.48046875 52.26025391 C-17.49142408 47.68569394 -17.53944688 43.11232895 -17.59641266 38.53814316 C-17.63375115 35.01384067 -17.64408112 31.4898232 -17.6471405 27.96533966 C-17.65317782 26.27966036 -17.66918228 24.59398516 -17.69551086 22.90850067 C-17.91070817 8.07018013 -17.91070817 8.07018013 -14.08398438 3.47363281 C-9.39152314 -0.29014309 -5.92277915 -0.78629999 0 0 Z " fill="#03E2F3" transform="translate(200,211)"/>
<path d="M0 0 C3.0625 2 3.0625 2 5 4 C4.67 4.66 4.34 5.32 4 6 C4.66 6.33 5.32 6.66 6 7 C7.11848342 10.35545027 7.20816561 13.05358629 7.31640625 16.58984375 C7.33723267 17.24263809 7.35805908 17.89543243 7.3795166 18.56800842 C7.44547366 20.6910561 7.50432525 22.81422589 7.5625 24.9375 C7.6053481 26.38997512 7.64823558 27.84244907 7.69116211 29.29492188 C8.00158664 40.19798304 8.11798807 51.0926581 8 62 C9.11375 61.505 9.11375 61.505 10.25 61 C13 60 13 60 17 60 C17 55.71 17 51.42 17 47 C17.99 47 18.98 47 20 47 C20 50.96 20 54.92 20 59 C21.175625 58.649375 22.35125 58.29875 23.5625 57.9375 C27.65466227 56.92171504 30.86324862 56.94553396 35 58 C37 59.3125 37 59.3125 38 61 C37.6875 63.1875 37.6875 63.1875 37 65 C37.99 65.495 37.99 65.495 39 66 C37.92363281 66.17015625 36.84726563 66.3403125 35.73828125 66.515625 C26.53751333 68.02389563 17.8391466 69.97163151 9 73 C8.99742187 73.78503906 8.99484375 74.57007813 8.9921875 75.37890625 C8.74952123 81.97133994 8.18717842 86.03211221 3.47265625 90.79296875 C0.26367922 93.42313826 -2.65915246 93.38780876 -6.67578125 93.35546875 C-10.61350991 92.7532279 -12.2829323 90.84960759 -15 88 C-17.38546285 84.42180573 -17.30902753 81.83645849 -17.32226562 77.70214844 C-17.33219543 76.96192947 -17.34212524 76.22171051 -17.35235596 75.45906067 C-17.38157446 73.00912761 -17.39519998 70.55945371 -17.40625 68.109375 C-17.41775698 66.40407302 -17.42927239 64.6987711 -17.4407959 62.99346924 C-17.46181017 59.41571855 -17.47349849 55.83805763 -17.48046875 52.26025391 C-17.49142408 47.68569394 -17.53944688 43.11232895 -17.59641266 38.53814316 C-17.63375115 35.01384067 -17.64408112 31.4898232 -17.6471405 27.96533966 C-17.65317782 26.27966036 -17.66918228 24.59398516 -17.69551086 22.90850067 C-17.91070817 8.07018013 -17.91070817 8.07018013 -14.08398438 3.47363281 C-9.39152314 -0.29014309 -5.92277915 -0.78629999 0 0 Z " fill="#3F55F9" transform="translate(200,211)"/>
<path d="M0 0 C0.66 0 1.32 0 2 0 C4.36008817 3.54013225 4.23463644 5.01121955 4.1953125 9.19921875 C4.18886719 10.40771484 4.18242187 11.61621094 4.17578125 12.86132812 C4.15902344 14.12396484 4.14226562 15.38660156 4.125 16.6875 C4.11597656 17.96173828 4.10695312 19.23597656 4.09765625 20.54882812 C4.07405641 23.69940627 4.04113194 26.84960983 4 30 C5.19496094 29.53851563 6.38992187 29.07703125 7.62109375 28.6015625 C17.8127232 24.78334693 28.12977783 22.80929435 39 23 C36.9927092 26.0109362 36.16115776 26.63016497 33 28 C38.63619392 30.35556666 44.05076965 30.39980631 50.0625 30.5625 C52.01183222 30.62273578 53.9610615 30.68642232 55.91015625 30.75390625 C56.76746338 30.77783447 57.62477051 30.8017627 58.50805664 30.82641602 C61 31 61 31 66 32 C66 38.6 66 45.2 66 52 C61.05 52 56.1 52 51 52 C51 45.73 51 39.46 51 33 C50.01 33 49.02 33 48 33 C48 39.27 48 45.54 48 52 C45.54046875 52.19916016 45.54046875 52.19916016 43.03125 52.40234375 C40.85415936 52.58063997 38.67707643 52.75903036 36.5 52.9375 C35.42234375 53.02451172 34.3446875 53.11152344 33.234375 53.20117188 C27.46753453 53.6758813 21.73474876 54.22747923 16 55 C15.67 53.02 15.34 51.04 15 49 C14.67 49 14.34 49 14 49 C13.67 51.31 13.34 53.62 13 56 C10.03 56.66 7.06 57.32 4 58 C3.71436229 50.64936382 3.42962066 43.29869332 3.14550781 35.94799805 C3.04871012 33.4463624 2.9517058 30.94473475 2.85449219 28.44311523 C2.7149536 24.85142046 2.57615336 21.2596978 2.4375 17.66796875 C2.39375244 16.54601608 2.35000488 15.42406342 2.30493164 14.26811218 C2.26489014 13.22725967 2.22484863 12.18640717 2.18359375 11.11401367 C2.14806396 10.19690109 2.11253418 9.27978851 2.07592773 8.33488464 C2.01812435 6.55734927 2 4.77847498 2 3 C1.01 2.67 0.02 2.34 -1 2 C-0.67 1.34 -0.34 0.68 0 0 Z " fill="#23A2DD" transform="translate(204,215)"/>
<path d="M0 0 C1.84754883 -0.00193359 1.84754883 -0.00193359 3.73242188 -0.00390625 C5.00021484 -0.00003906 6.26800781 0.00382813 7.57421875 0.0078125 C8.86134766 0.00394531 10.14847656 0.00007812 11.47460938 -0.00390625 C12.69986328 -0.00261719 13.92511719 -0.00132812 15.1875 0 C16.86453003 0.00169189 16.86453003 0.00169189 18.57543945 0.00341797 C21.26171875 0.1328125 21.26171875 0.1328125 23.26171875 1.1328125 C23.26171875 1.7928125 23.26171875 2.4528125 23.26171875 3.1328125 C24.43734375 3.0915625 25.61296875 3.0503125 26.82421875 3.0078125 C30.98581549 2.99297615 34.32659542 3.82110472 38.26171875 5.1328125 C37.60171875 6.7828125 36.94171875 8.4328125 36.26171875 10.1328125 C36.92171875 10.1328125 37.58171875 10.1328125 38.26171875 10.1328125 C38.26171875 10.7928125 38.26171875 11.4528125 38.26171875 12.1328125 C37.04484375 12.1534375 35.82796875 12.1740625 34.57421875 12.1953125 C33.88972656 12.20691406 33.20523438 12.21851563 32.5 12.23046875 C30.26171875 12.1328125 30.26171875 12.1328125 25.26171875 11.1328125 C25.26171875 17.4028125 25.26171875 23.6728125 25.26171875 30.1328125 C28.23171875 30.4628125 31.20171875 30.7928125 34.26171875 31.1328125 C35.25171875 31.4628125 36.24171875 31.7928125 37.26171875 32.1328125 C37.26171875 26.8528125 37.26171875 21.5728125 37.26171875 16.1328125 C38.25171875 15.8028125 39.24171875 15.4728125 40.26171875 15.1328125 C40.26171875 21.0728125 40.26171875 27.0128125 40.26171875 33.1328125 C43.23171875 33.6278125 43.23171875 33.6278125 46.26171875 34.1328125 C46.92171875 34.4628125 47.58171875 34.7928125 48.26171875 35.1328125 C48.26171875 29.1928125 48.26171875 23.2528125 48.26171875 17.1328125 C48.59171875 17.1328125 48.92171875 17.1328125 49.26171875 17.1328125 C49.2867749 17.87442627 49.31183105 18.61604004 49.33764648 19.38012695 C49.45358007 22.73536578 49.5763186 26.09032194 49.69921875 29.4453125 C49.73853516 30.61255859 49.77785156 31.77980469 49.81835938 32.98242188 C49.86025391 34.10068359 49.90214844 35.21894531 49.9453125 36.37109375 C49.98197021 37.40274658 50.01862793 38.43439941 50.05639648 39.49731445 C50.16333117 42.24029508 50.16333117 42.24029508 51.26171875 45.1328125 C50.93171875 45.4628125 50.60171875 45.7928125 50.26171875 46.1328125 C50.02807994 47.98173196 49.8486824 49.83769281 49.69921875 51.6953125 C49.61542969 52.70722656 49.53164063 53.71914063 49.4453125 54.76171875 C49.38472656 55.54417969 49.32414062 56.32664062 49.26171875 57.1328125 C48.93171875 57.1328125 48.60171875 57.1328125 48.26171875 57.1328125 C48.26171875 53.5028125 48.26171875 49.8728125 48.26171875 46.1328125 C28.13118716 39.4226353 8.29518308 38.3684133 -12.73828125 38.1328125 C-12.73828125 36.1528125 -12.73828125 34.1728125 -12.73828125 32.1328125 C-14.38828125 31.8028125 -16.03828125 31.4728125 -17.73828125 31.1328125 C-17.73828125 30.8028125 -17.73828125 30.4728125 -17.73828125 30.1328125 C-11.06301738 28.89090294 -4.51961218 29.06290187 2.26171875 29.1328125 C2.26171875 22.8628125 2.26171875 16.5928125 2.26171875 10.1328125 C3.25171875 10.1328125 4.24171875 10.1328125 5.26171875 10.1328125 C5.26171875 16.4028125 5.26171875 22.6728125 5.26171875 29.1328125 C10.21171875 29.1328125 15.16171875 29.1328125 20.26171875 29.1328125 C20.26171875 22.5328125 20.26171875 15.9328125 20.26171875 9.1328125 C18.22628906 9.08382812 16.19085938 9.03484375 14.09375 8.984375 C12.11122796 8.92872526 10.12870718 8.87300878 8.14624023 8.81542969 C6.77393294 8.77726962 5.40153004 8.74239454 4.02905273 8.7109375 C2.05039585 8.66500568 0.07205433 8.60607613 -1.90625 8.546875 C-3.09500732 8.5154541 -4.28376465 8.4840332 -5.50854492 8.45166016 C-8.63669453 8.1428414 -10.90941884 7.4621213 -13.73828125 6.1328125 C-13.07828125 5.1428125 -12.41828125 4.1528125 -11.73828125 3.1328125 C-12.39828125 2.4728125 -13.05828125 1.8128125 -13.73828125 1.1328125 C-9.11568983 0.39457611 -4.67959867 0.00469738 0 0 Z " fill="#0FD8F6" transform="translate(249.73828125,237.8671875)"/>
<path d="M0 0 C0.66 0 1.32 0 2 0 C2.11667504 8.49383721 2.20510551 16.98733072 2.25906086 25.48177528 C2.28497785 29.42759454 2.32003998 33.37285919 2.37719727 37.31835938 C2.43216717 41.13746841 2.46155447 44.95604954 2.47438622 48.77552414 C2.48351133 50.22098459 2.5013247 51.66642142 2.52865028 53.11165237 C2.76856814 66.34652983 0.46416744 79.07190278 -9 89 C-18.0481041 98.13346358 -28.23268465 101.17134564 -40.91029859 101.28520131 C-43.05530872 101.29358944 -45.20019066 101.2921834 -47.34521484 101.29052734 C-48.89665549 101.29651902 -50.44809317 101.30332603 -51.99952698 101.31088257 C-56.19588794 101.32848288 -60.39216723 101.33323537 -64.58856153 101.33451414 C-67.2145735 101.33593947 -69.84056495 101.34021625 -72.46657181 101.34550858 C-81.63983724 101.36398778 -90.8130447 101.37218167 -99.98632812 101.37060547 C-108.51832095 101.36940404 -117.05006082 101.39051205 -125.58198965 101.4220928 C-132.92408441 101.44829473 -140.26609673 101.45897115 -147.60823786 101.45769465 C-151.98593915 101.45718625 -156.36341535 101.46280195 -160.74106979 101.48405075 C-164.86000088 101.5034999 -168.97849363 101.50351242 -173.09744072 101.48901749 C-174.60260729 101.48693667 -176.1078018 101.49158668 -177.61292076 101.5037384 C-190.05286106 101.59761061 -199.58819743 99.49214619 -209 91 C-213.8316486 86.23751611 -217.57009878 81.35599162 -220 75 C-220.2990625 74.22011719 -220.598125 73.44023437 -220.90625 72.63671875 C-223.14835638 65.46405437 -223.28253269 58.38841004 -223.3125 50.9375 C-223.31797852 49.91325928 -223.32345703 48.88901855 -223.32910156 47.83374023 C-223.257146 40.385719 -223.257146 40.385719 -221 37 C-220.9906543 37.78012451 -220.98130859 38.56024902 -220.97167969 39.36401367 C-220.91728544 42.97243225 -220.83377646 46.57964855 -220.75 50.1875 C-220.73582031 51.41404297 -220.72164062 52.64058594 -220.70703125 53.90429688 C-220.35996547 67.05808976 -217.52335758 78.9340926 -208.375 88.7421875 C-201.35599598 95.27376068 -192.98083752 98.10848537 -183.53224182 98.15390015 C-182.56082124 98.16047353 -182.56082124 98.16047353 -181.569776 98.1671797 C-179.40141339 98.18052535 -177.2330914 98.18673712 -175.06469727 98.19287109 C-173.50886351 98.20077573 -171.95303157 98.20904491 -170.39720154 98.21765137 C-165.28695417 98.24384107 -160.17669877 98.25918117 -155.06640625 98.2734375 C-153.30346103 98.27879942 -151.54051585 98.28417693 -149.77757072 98.28956985 C-142.43865575 98.31119874 -135.09974295 98.32993142 -127.76080418 98.34119225 C-117.26606901 98.35740398 -106.77170567 98.39051393 -96.27711064 98.44759309 C-88.88665448 98.48640809 -81.49629727 98.50583886 -74.10574192 98.51111281 C-69.69818444 98.51475197 -65.29102381 98.52661834 -60.88357735 98.55921555 C-56.72935546 98.58949853 -52.5757663 98.59553687 -48.42145729 98.58383179 C-46.90624877 98.58361269 -45.39100916 98.5917798 -43.87590408 98.60948563 C-32.00579706 98.74052003 -21.17295089 97.1545534 -12 89 C-11.67 88.34 -11.34 87.68 -11 87 C-10.34 87 -9.68 87 -9 87 C-8.72285156 86.278125 -8.44570313 85.55625 -8.16015625 84.8125 C-6.69272751 81.25509699 -4.91284368 77.90272984 -3.12109375 74.5 C-1.02912145 69.83497467 -0.86149007 65.35017559 -0.79467773 60.28198242 C-0.78477814 59.62776306 -0.77487854 58.9735437 -0.76467896 58.29949951 C-0.73326086 56.15152522 -0.70838508 54.00352887 -0.68359375 51.85546875 C-0.66300718 50.36045275 -0.64201027 48.86544235 -0.62062073 47.37043762 C-0.56557585 43.44634552 -0.51608947 39.52220242 -0.46777344 35.59802246 C-0.41742956 31.58939099 -0.36181093 27.58083306 -0.30664062 23.57226562 C-0.19927431 15.71490603 -0.09778207 7.85748469 0 0 Z " fill="#555622" transform="translate(363,278)"/>
<path d="M0 0 C1.87954376 -0.00856522 1.87954376 -0.00856522 3.79705811 -0.01730347 C5.17300405 -0.01854861 6.54895011 -0.01967375 7.92489624 -0.02069092 C9.38412602 -0.02532391 10.8433546 -0.03034921 12.30258179 -0.03573608 C16.2574511 -0.04881779 20.21230347 -0.05529703 24.16719103 -0.05974674 C26.64277782 -0.06268497 29.11836006 -0.06679123 31.59394455 -0.07125092 C39.35310615 -0.08491617 47.11225725 -0.09458696 54.87143004 -0.09845281 C63.8025766 -0.10292801 72.7335697 -0.12045495 81.66466963 -0.1494534 C88.58466926 -0.17113527 95.50462593 -0.18116058 102.42465913 -0.18249393 C106.54979451 -0.18353752 110.67478544 -0.1893495 114.7998848 -0.20731354 C118.68563059 -0.22390667 122.57112511 -0.22589584 126.45689392 -0.21717453 C127.87414096 -0.21641006 129.29140214 -0.22066788 130.70861435 -0.23063278 C141.1362207 -0.29958626 152.5155663 -0.10381312 161.10214233 6.57794189 C161.91038452 7.19798096 162.71862671 7.81802002 163.55136108 8.45684814 C164.5974353 9.29022705 164.5974353 9.29022705 165.66464233 10.14044189 C167.02589233 11.06856689 167.02589233 11.06856689 168.41464233 12.01544189 C176.78809706 19.9237047 180.67603473 30.88225043 181.08641434 42.25275898 C181.14312864 46.0357788 181.10664086 49.81461058 181.05526733 53.59747314 C181.04778696 55.23798424 181.04210255 56.8785044 181.03811646 58.51902771 C181.02300114 62.79183568 180.98384534 67.06408098 180.93930054 71.33666992 C180.89803936 75.71454257 180.88004026 80.09250807 180.85995483 84.47052002 C180.81733377 93.02741598 180.74925887 101.58385852 180.66464233 110.14044189 C180.00464233 110.14044189 179.34464233 110.14044189 178.66464233 110.14044189 C178.66987915 109.39625 178.67511597 108.65205811 178.68051147 107.88531494 C178.77947773 91.29531351 178.70222969 74.70635781 178.40118408 58.11862183 C178.36870774 56.2291938 178.34107364 54.33967582 178.31848145 52.45010376 C178.13328106 37.61389646 177.36879502 25.6272048 166.88339233 14.19903564 C158.49220655 6.23772618 148.65713857 3.03755693 137.24662781 2.99327087 C135.97532516 2.98611557 134.70402252 2.97896027 133.39419556 2.97158813 C131.99777246 2.96874839 130.6013491 2.9660366 129.20492554 2.96343994 C127.72436872 2.95716874 126.24381346 2.95052136 124.76325989 2.94352722 C119.91399211 2.92256311 115.06472429 2.91213222 110.21542358 2.90216064 C108.54096142 2.89811027 106.86649942 2.89399327 105.19203758 2.88981056 C97.32342404 2.87077595 89.45481978 2.85654112 81.58618766 2.84819859 C72.52537635 2.83843141 63.46480966 2.81211823 54.4040845 2.7716977 C47.38558863 2.74146979 40.36716262 2.72672342 33.34860295 2.72341758 C29.16364515 2.72107482 24.9789492 2.71221564 20.79406166 2.68695641 C16.85327631 2.66355315 12.91292298 2.65949113 8.97208595 2.66971779 C7.53344784 2.67021029 6.09478755 2.66397498 4.65621567 2.65016174 C-6.64192563 2.54782851 -16.20276312 4.08343702 -25.33535767 11.14044189 C-25.89738892 11.54778564 -26.45942017 11.95512939 -27.03848267 12.37481689 C-36.5401098 19.72825007 -39.72520338 29.56895997 -41.33535767 41.14044189 C-41.84579037 46.13172788 -42.13174581 51.12737764 -42.33535767 56.14044189 C-42.66535767 56.14044189 -42.99535767 56.14044189 -43.33535767 56.14044189 C-43.79464487 39.9594004 -43.47219142 27.16469671 -32.67129517 14.13262939 C-23.76721604 4.74065553 -12.90903659 0.03539059 0 0 Z " fill="#564523" transform="translate(184.33535766601563,147.85955810546875)"/>
<path d="M0 0 C0.66 0 1.32 0 2 0 C4.36008817 3.54013225 4.23463644 5.01121955 4.1953125 9.19921875 C4.18886719 10.40771484 4.18242187 11.61621094 4.17578125 12.86132812 C4.15902344 14.12396484 4.14226562 15.38660156 4.125 16.6875 C4.11597656 17.96173828 4.10695312 19.23597656 4.09765625 20.54882812 C4.07405641 23.69940627 4.04113194 26.84960983 4 30 C4.87398437 29.49339844 4.87398437 29.49339844 5.765625 28.9765625 C9.01988837 27.5542446 11.58772189 28.34379267 15 29 C15 30.65 15 32.3 15 34 C19.78118773 35.44192906 19.78118773 35.44192906 28 34 C28 40.27 28 46.54 28 53 C24.04 53.66 20.08 54.32 16 55 C15.67 53.02 15.34 51.04 15 49 C14.67 49 14.34 49 14 49 C13.67 51.31 13.34 53.62 13 56 C10.03 56.66 7.06 57.32 4 58 C3.71436229 50.64936382 3.42962066 43.29869332 3.14550781 35.94799805 C3.04871012 33.4463624 2.9517058 30.94473475 2.85449219 28.44311523 C2.7149536 24.85142046 2.57615336 21.2596978 2.4375 17.66796875 C2.39375244 16.54601608 2.35000488 15.42406342 2.30493164 14.26811218 C2.26489014 13.22725967 2.22484863 12.18640717 2.18359375 11.11401367 C2.14806396 10.19690109 2.11253418 9.27978851 2.07592773 8.33488464 C2.01812435 6.55734927 2 4.77847498 2 3 C1.01 2.67 0.02 2.34 -1 2 C-0.67 1.34 -0.34 0.68 0 0 Z " fill="#365EE0" transform="translate(204,215)"/>
<path d="M0 0 C168.96 0 337.92 0 512 0 C512 0.33 512 0.66 512 1 C343.04 1 174.08 1 0 1 C0 0.67 0 0.34 0 0 Z " fill="#000000" transform="translate(0,428)"/>
<path d="M0 0 C168.96 0 337.92 0 512 0 C512 0.33 512 0.66 512 1 C343.04 1 174.08 1 0 1 C0 0.67 0 0.34 0 0 Z " fill="#000000" transform="translate(0,83)"/>
<path d="M0 0 C8.56422309 0.38664664 17.28101456 2.14050728 25 6 C25 15.24 25 24.48 25 34 C22.36 33.34 19.72 32.68 17 32 C16.67 26.39 16.34 20.78 16 15 C15.34 15 14.68 15 14 15 C14 20.28 14 25.56 14 31 C8.06 30.01 8.06 30.01 2 29 C2 22.73 2 16.46 2 10 C6.29 10.33 10.58 10.66 15 11 C15 10.34 15 9.68 15 9 C14.34 9 13.68 9 13 9 C13.66 7.35 14.32 5.7 15 4 C7.575 3.01 7.575 3.01 0 2 C0 1.34 0 0.68 0 0 Z " fill="#16DAE8" transform="translate(273,239)"/>
<path d="M0 0 C0.99 0.33 1.98 0.66 3 1 C2.34 1 1.68 1 1 1 C1 7.27 1 13.54 1 20 C3.97 20.33 6.94 20.66 10 21 C10.99 21.33 11.98 21.66 13 22 C13 16.72 13 11.44 13 6 C13.99 5.67 14.98 5.34 16 5 C16 10.94 16 16.88 16 23 C17.98 23.33 19.96 23.66 22 24 C22.66 24.33 23.32 24.66 24 25 C24 19.06 24 13.12 24 7 C24.33 7 24.66 7 25 7 C25.02505615 7.74161377 25.0501123 8.48322754 25.07592773 9.24731445 C25.19186132 12.60255328 25.31459985 15.95750944 25.4375 19.3125 C25.47681641 20.47974609 25.51613281 21.64699219 25.55664062 22.84960938 C25.59853516 23.96787109 25.64042969 25.08613281 25.68359375 26.23828125 C25.72025146 27.26993408 25.75690918 28.30158691 25.79467773 29.36450195 C25.90161242 32.10748258 25.90161242 32.10748258 27 35 C26.67 35.33 26.34 35.66 26 36 C25.76636119 37.84891946 25.58696365 39.70488031 25.4375 41.5625 C25.31181641 43.08037109 25.31181641 43.08037109 25.18359375 44.62890625 C25.12300781 45.41136719 25.06242187 46.19382812 25 47 C24.67 47 24.34 47 24 47 C24 43.37 24 39.74 24 36 C14.20317387 32.73439129 4.12559281 30.92931601 -6 29 C-4.92578125 27.2421875 -3.8515625 25.484375 -2.77734375 23.7265625 C-2.52082031 23.15679687 -2.26429688 22.58703125 -2 22 C-2.33 21.34 -2.66 20.68 -3 20 C-2.01 20 -1.02 20 0 20 C0 13.4 0 6.8 0 0 Z " fill="#0CCDE5" transform="translate(274,248)"/>
<path d="M0 0 C0.99 0 1.98 0 3 0 C3 6.27 3 12.54 3 19 C7.95 19 12.9 19 18 19 C17.01 19.66 16.02 20.32 15 21 C15.95865509 23.33075929 15.95865509 23.33075929 19 25 C18.34 25.99 17.68 26.98 17 28 C14.51659097 28.26727014 12.28527932 28.34866334 9.8046875 28.29296875 C9.09724396 28.28872391 8.38980042 28.28447906 7.66091919 28.28010559 C5.39856095 28.26329547 3.13708952 28.22564128 0.875 28.1875 C-0.65753923 28.17245607 -2.1900924 28.15876716 -3.72265625 28.14648438 C-7.48211318 28.11338462 -11.24090618 28.06158825 -15 28 C-15 26.02 -15 24.04 -15 22 C-16.65 21.67 -18.3 21.34 -20 21 C-20 20.67 -20 20.34 -20 20 C-13.32473613 18.75809044 -6.78133093 18.93008937 0 19 C0 12.73 0 6.46 0 0 Z " fill="#11D6F9" transform="translate(252,248)"/>
<path d="M0 0 C4.62 0 9.24 0 14 0 C14 6.6 14 13.2 14 20 C9.38 20 4.76 20 0 20 C0 13.4 0 6.8 0 0 Z " fill="#07080C" transform="translate(256,247)"/>
<path d="M0 0 C0.99 0 1.98 0 3 0 C3 3.96 3 7.92 3 12 C4.175625 11.649375 5.35125 11.29875 6.5625 10.9375 C10.65466227 9.92171504 13.86324862 9.94553396 18 11 C20 12.3125 20 12.3125 21 14 C20.6875 16.1875 20.6875 16.1875 20 18 C20.66 18.33 21.32 18.66 22 19 C13.01638277 20.65707093 4.11689851 22.27643663 -5 23 C-5.66 20.69 -6.32 18.38 -7 16 C-5.75 14.5 -5.75 14.5 -4 13 C-2.68 13 -1.36 13 0 13 C0 8.71 0 4.42 0 0 Z " fill="#3863F6" transform="translate(217,258)"/>
<path d="M0 0 C0 6.6 0 13.2 0 20 C-4.62 20 -9.24 20 -14 20 C-14 13.73 -14 7.46 -14 1 C-9 0 -9 0 0 0 Z " fill="#04050B" transform="translate(251,247)"/>
<path d="M0 0 C1.629375 0.144375 3.25875 0.28875 4.9375 0.4375 C6.31228516 0.55931641 6.31228516 0.55931641 7.71484375 0.68359375 C10 1 10 1 11 2 C11.08651611 3.41570123 11.10704904 4.835595 11.09765625 6.25390625 C11.09443359 7.10791016 11.09121094 7.96191406 11.08789062 8.84179688 C11.07951172 9.73962891 11.07113281 10.63746094 11.0625 11.5625 C11.05798828 12.46419922 11.05347656 13.36589844 11.04882812 14.29492188 C11.03700244 16.52997589 11.01906638 18.76499602 11 21 C7.37 20.34 3.74 19.68 0 19 C0 12.73 0 6.46 0 0 Z " fill="#04070C" transform="translate(275,249)"/>
<path d="M0 0 C0 6.27 0 12.54 0 19 C-4 20 -4 20 -11 20 C-11 14.06 -11 8.12 -11 2 C-9.370625 1.67 -7.74125 1.34 -6.0625 1 C-5.14597656 0.814375 -4.22945312 0.62875 -3.28515625 0.4375 C-1 0 -1 0 0 0 Z " fill="#020205" transform="translate(232,249)"/>
<path d="M0 0 C0 1.98 0 3.96 0 6 C5.94 5.67 11.88 5.34 18 5 C18 5.33 18 5.66 18 6 C16.35 6 14.7 6 13 6 C13 12.27 13 18.54 13 25 C13.66 25.33 14.32 25.66 15 26 C12.69 26 10.38 26 8 26 C7.67 20.06 7.34 14.12 7 8 C4.20052083 8.29296875 1.40104167 8.5859375 -1.3984375 8.87890625 C-4 9 -4 9 -6 8 C-6 6.35 -6 4.7 -6 3 C-6.66 2.67 -7.32 2.34 -8 2 C-8 1.34 -8 0.68 -8 0 C-4.71303767 -0.79953138 -3.28976808 -1.09658936 0 0 Z " fill="#3372D2" transform="translate(224,242)"/>
<path d="M0 0 C7.04338539 -0.07663409 14.08666159 -0.12884295 21.13037109 -0.16479492 C23.52201353 -0.17979713 25.91362885 -0.20020547 28.30517578 -0.22631836 C31.76081064 -0.26308043 35.21607892 -0.27981264 38.671875 -0.29296875 C39.72550232 -0.30845261 40.77912964 -0.32393646 41.86468506 -0.33988953 C51.06137028 -0.34193227 60.95678949 0.61628853 68.4375 6.4375 C69.24316406 7.05367187 70.04882812 7.66984375 70.87890625 8.3046875 C71.57886719 8.86414063 72.27882813 9.42359375 73 10 C73.94875 10.680625 74.8975 11.36125 75.875 12.0625 C78.462437 14.42163374 80.17494549 17.0258371 82 20 C81.67 20.66 81.34 21.32 81 22 C80.46632813 21.34773438 79.93265625 20.69546875 79.3828125 20.0234375 C71.67276582 10.9794727 63.00707017 4.5624511 51 3 C47.16021296 2.80597781 43.32049297 2.74404391 39.4765625 2.68359375 C37.82459366 2.6524221 37.82459366 2.6524221 36.13925171 2.62062073 C32.63456227 2.5554381 29.12980034 2.49638603 25.625 2.4375 C23.2434822 2.39428502 20.86197163 2.35066978 18.48046875 2.30664062 C12.6537216 2.19978888 6.82690297 2.09796533 1 2 C0.67 1.34 0.34 0.68 0 0 Z " fill="#554B2D" transform="translate(277,148)"/>
<path d="M0 0 C0 5.94 0 11.88 0 18 C-2.64 18.66 -5.28 19.32 -8 20 C-8 14.06 -8 8.12 -8 2 C-3 0 -3 0 0 0 Z " fill="#040611" transform="translate(216,253)"/>
<path d="M0 0 C2.31 0.33 4.62 0.66 7 1 C7 7.27 7 13.54 7 20 C4.69 19.34 2.38 18.68 0 18 C0 12.06 0 6.12 0 0 Z " fill="#09090E" transform="translate(291,253)"/>
<path d="M0 0 C0.33 0 0.66 0 1 0 C1.02505615 0.74161377 1.0501123 1.48322754 1.07592773 2.24731445 C1.19186132 5.60255328 1.31459985 8.95750944 1.4375 12.3125 C1.47681641 13.47974609 1.51613281 14.64699219 1.55664062 15.84960938 C1.61948242 17.52700195 1.61948242 17.52700195 1.68359375 19.23828125 C1.72025146 20.26993408 1.75690918 21.30158691 1.79467773 22.36450195 C1.90161242 25.10748258 1.90161242 25.10748258 3 28 C2.67 28.33 2.34 28.66 2 29 C1.76636119 30.84891946 1.58696365 32.70488031 1.4375 34.5625 C1.35371094 35.57441406 1.26992188 36.58632813 1.18359375 37.62890625 C1.12300781 38.41136719 1.06242187 39.19382812 1 40 C0.67 40 0.34 40 0 40 C0 36.37 0 32.74 0 29 C-1.5675 28.54625 -3.135 28.0925 -4.75 27.625 C-8.12342347 26.64848268 -10.81928996 25.59035502 -14 24 C-11.03 23.67 -8.06 23.34 -5 23 C-5 22.34 -5 21.68 -5 21 C-4.34 21 -3.68 21 -3 21 C-3 20.34 -3 19.68 -3 19 C-4.32 19 -5.64 19 -7 19 C-7 18.01 -7 17.02 -7 16 C-2.25 16.875 -2.25 16.875 0 18 C0 12.06 0 6.12 0 0 Z " fill="#0BB0CD" transform="translate(298,255)"/>
<path d="M0 0 C1.90443953 3.80887907 2.25157359 5.06101019 2.25878906 9.08813477 C2.26509338 10.09920792 2.27139771 11.11028107 2.27789307 12.1519928 C2.2738446 13.23749924 2.26979614 14.32300568 2.265625 15.44140625 C2.26753845 16.56062973 2.2694519 17.67985321 2.27142334 18.83299255 C2.27278367 21.19750188 2.26909786 23.56201872 2.26074219 25.92651367 C2.25003075 29.55209048 2.26064806 33.17717289 2.2734375 36.80273438 C2.27211608 39.09895943 2.26955404 41.39518418 2.265625 43.69140625 C2.26967346 44.77893692 2.27372192 45.86646759 2.27789307 46.98695374 C2.27158875 47.99487473 2.26528442 49.00279572 2.25878906 50.04125977 C2.25719788 50.92854263 2.25560669 51.8158255 2.25396729 52.72999573 C2 55 2 55 0 58 C0 57.34 0 56.68 0 56 C-0.66 56 -1.32 56 -2 56 C-1.34 52.37 -0.68 48.74 0 45 C-0.66 44.67 -1.32 44.34 -2 44 C-1.34 44 -0.68 44 0 44 C-0.0721875 43.22398437 -0.144375 42.44796875 -0.21875 41.6484375 C-2.09570781 19.80273409 -2.09570781 19.80273409 0 13 C-0.66 13 -1.32 13 -2 13 C-2 12.01 -2 11.02 -2 10 C-1.34 10 -0.68 10 0 10 C0 6.7 0 3.4 0 0 Z " fill="#1A0907" transform="translate(28,126)"/>
<path d="M0 0 C0 0.33 0 0.66 0 1 C-0.98226562 1.12955078 -0.98226562 1.12955078 -1.984375 1.26171875 C-15.00353243 3.26608056 -25.47573256 7.77312769 -33.78125 18.24609375 C-41.04774536 29.09240667 -41.48584346 42.34111141 -42 55 C-42.33 55 -42.66 55 -43 55 C-43.4592872 38.8189585 -43.13683376 26.02425482 -32.3359375 12.9921875 C-28.38192392 8.82151564 -24.0302822 5.74653408 -19 3 C-17.9275 2.401875 -16.855 1.80375 -15.75 1.1875 C-10.47870091 -0.48174471 -5.48326926 -0.24310061 0 0 Z " fill="#6C692E" transform="translate(184,149)"/>
<path d="M0 0 C-0.33 1.32 -0.66 2.64 -1 4 C2.3 4.33 5.6 4.66 9 5 C9 5.33 9 5.66 9 6 C11.475 6.495 11.475 6.495 14 7 C14 7.33 14 7.66 14 8 C5.75 8 -2.5 8 -11 8 C-11 6.02 -11 4.04 -11 2 C-11.66 1.67 -12.32 1.34 -13 1 C-8.59085217 -0.10228696 -4.51617599 -0.07654536 0 0 Z " fill="#07C1FD" transform="translate(248,268)"/>
<path d="M0 0 C1 3 1 3 0 6 C0.66 6.33 1.32 6.66 2 7 C-2.95 7 -7.9 7 -13 7 C-12.67 4.69 -12.34 2.38 -12 0 C-10.56359829 -0.19573608 -9.12580496 -0.38127816 -7.6875 -0.5625 C-6.88699219 -0.66691406 -6.08648437 -0.77132813 -5.26171875 -0.87890625 C-3 -1 -3 -1 0 0 Z " fill="#268BFB" transform="translate(237,270)"/>
<path d="M0 0 C1.32 0 2.64 0 4 0 C4 5.94 4 11.88 4 18 C4.66 18.33 5.32 18.66 6 19 C4.02 19 2.04 19 0 19 C0 12.73 0 6.46 0 0 Z " fill="#2594F6" transform="translate(233,249)"/>
<path d="M0 0 C11.90446041 -0.60078585 19.44525713 1.97828838 29 9 C29.928125 9.66 30.85625 10.32 31.8125 11 C34.42309319 13.38682806 36.15594888 15.99487966 38 19 C37.67 19.66 37.34 20.32 37 21 C36.46632813 20.34773438 35.93265625 19.69546875 35.3828125 19.0234375 C27.30359435 9.54643074 18.63868188 3.6357732 6.1875 1.875 C4.44533203 1.62363281 4.44533203 1.62363281 2.66796875 1.3671875 C1.78753906 1.24601563 0.90710938 1.12484375 0 1 C0 0.67 0 0.34 0 0 Z " fill="#6D6A33" transform="translate(321,149)"/>
<path d="M0 0 C0.33 0.66 0.66 1.32 1 2 C1.66 2 2.32 2 3 2 C3.08112454 4.58396679 3.14054748 7.16537568 3.1875 9.75 C3.22520508 10.84441406 3.22520508 10.84441406 3.26367188 11.9609375 C3.30981636 15.34486604 3.25324128 17.57858557 1.48828125 20.515625 C0.99714844 21.00546875 0.50601562 21.4953125 0 22 C-1.32 21.67 -2.64 21.34 -4 21 C-4 20.34 -4 19.68 -4 19 C-4.99 18.67 -5.98 18.34 -7 18 C-5.02 17.67 -3.04 17.34 -1 17 C-0.67 11.39 -0.34 5.78 0 0 Z " fill="#06E1F9" transform="translate(271,250)"/>
<path d="M0 0 C1.66516771 2.49775156 2.08457544 3.56655089 1.5 6.5625 C-0.55875421 9.90797559 -2.3070262 10.70062033 -6 12 C-10.14650262 12.59235752 -12.46701341 12.92153069 -16.06640625 10.7578125 C-17.9165722 9.25525348 -19.53488679 7.88175478 -21 6 C-21 5.01 -21 4.02 -21 3 C-18.46440887 4.26779557 -16.89943078 5.91062614 -15 8 C-15 8.66 -15 9.32 -15 10 C-9.555 9.01 -9.555 9.01 -4 8 C-4 7.34 -4 6.68 -4 6 C-3.01 6 -2.02 6 -1 6 C-0.67 4.02 -0.34 2.04 0 0 Z " fill="#0EB3D5" transform="translate(320,292)"/>
<path d="M0 0 C0.33 6.27 0.66 12.54 1 19 C-1.97 18.67 -4.94 18.34 -8 18 C-8 17.67 -8 17.34 -8 17 C-6.35 17 -4.7 17 -3 17 C-3 11.72 -3 6.44 -3 1 C-1 0 -1 0 0 0 Z " fill="#06DEF5" transform="translate(290,253)"/>
<path d="M0 0 C0.99 0 1.98 0 3 0 C3 3.96 3 7.92 3 12 C4.19625 11.649375 5.3925 11.29875 6.625 10.9375 C10.37673012 9.98287828 13.2006739 10.05016847 17 11 C17 11.33 17 11.66 17 12 C10.6221448 13.17293889 4.49678438 14.29530838 -2 14 C-1.34 13.67 -0.68 13.34 0 13 C0 8.71 0 4.42 0 0 Z " fill="#3F7FF6" transform="translate(217,258)"/>
<path d="M0 0 C0.66 0 1.32 0 2 0 C2.83741504 6.48996656 3.1352398 12.90105553 3.1875 19.4375 C3.20683594 20.62738525 3.20683594 20.62738525 3.2265625 21.84130859 C3.23326057 25.7504677 3.21711376 27.67432936 1 31 C1 30.34 1 29.68 1 29 C0.34 29 -0.32 29 -1 29 C-0.34 25.37 0.32 21.74 1 18 C0.34 17.67 -0.32 17.34 -1 17 C-0.34 17 0.32 17 1 17 C0.9278125 16.10796875 0.855625 15.2159375 0.78125 14.296875 C0.6884375 13.12640625 0.595625 11.9559375 0.5 10.75 C0.4071875 9.58984375 0.314375 8.4296875 0.21875 7.234375 C0.05595356 4.82731342 0 2.41256049 0 0 Z " fill="#272411" transform="translate(27,153)"/>
<path d="M0 0 C0.99 0 1.98 0 3 0 C3 6.27 3 12.54 3 19 C2.01 19 1.02 19 0 19 C0 12.73 0 6.46 0 0 Z " fill="#06CFFC" transform="translate(252,248)"/>
<path d="M0 0 C1.32 0.33 2.64 0.66 4 1 C4 3.97 4 6.94 4 10 C1.69 9.67 -0.62 9.34 -3 9 C-3 14.94 -3 20.88 -3 27 C-3.33 27 -3.66 27 -4 27 C-4 20.73 -4 14.46 -4 8 C-2.68 8 -1.36 8 0 8 C0 5.36 0 2.72 0 0 Z " fill="#0E9FB6" transform="translate(294,244)"/>
<path d="M0 0 C0.99 0 1.98 0 3 0 C3 7.92 3 15.84 3 24 C2.01 23.67 1.02 23.34 0 23 C0 15.41 0 7.82 0 0 Z " fill="#120707" transform="translate(27,85)"/>
<path d="M0 0 C2.29755922 3.44633882 2.23643976 4.71068391 2.1953125 8.76171875 C2.18886719 9.87998047 2.18242187 10.99824219 2.17578125 12.15039062 C2.15902344 13.31763672 2.14226562 14.48488281 2.125 15.6875 C2.11597656 16.86634766 2.10695313 18.04519531 2.09765625 19.25976562 C2.07406423 22.17338026 2.0411454 25.08658892 2 28 C1.34 28 0.68 28 0 28 C0 23.71 0 19.42 0 15 C-0.66 14.67 -1.32 14.34 -2 14 C-1.67 13.67 -1.34 13.34 -1 13 C-0.76518307 10.81707226 -0.58636677 8.62796826 -0.4375 6.4375 C-0.35371094 5.23996094 -0.26992188 4.04242188 -0.18359375 2.80859375 C-0.12300781 1.88175781 -0.06242187 0.95492187 0 0 Z " fill="#171A0E" transform="translate(396,175)"/>
<path d="M0 0 C0.04254356 1.99954746 0.04080783 4.00041636 0 6 C-1 7 -1 7 -2.84765625 7.09765625 C-4.8984375 7.06510417 -6.94921875 7.03255208 -9 7 C-8.34 6.67 -7.68 6.34 -7 6 C-7 4.68 -7 3.36 -7 2 C-7.66 1.67 -8.32 1.34 -9 1 C-6.04335481 -0.4783226 -3.25770263 -0.06032783 0 0 Z " fill="#278EFD" transform="translate(231,242)"/>
<path d="M0 0 C2.31 0.33 4.62 0.66 7 1 C6.34 2.65 5.68 4.3 5 6 C5.66 6 6.32 6 7 6 C7 6.66 7 7.32 7 8 C3.625 7.75 3.625 7.75 0 7 C-1.4375 4.9375 -1.4375 4.9375 -2 3 C-1.34 2.34 -0.68 1.68 0 1 C0 0.67 0 0.34 0 0 Z " fill="#05E8F6" transform="translate(281,242)"/>
<path d="M0 0 C0.33 0 0.66 0 1 0 C1.02505615 0.74161377 1.0501123 1.48322754 1.07592773 2.24731445 C1.19186132 5.60255328 1.31459985 8.95750944 1.4375 12.3125 C1.47681641 13.47974609 1.51613281 14.64699219 1.55664062 15.84960938 C1.59853516 16.96787109 1.64042969 18.08613281 1.68359375 19.23828125 C1.72025146 20.26993408 1.75690918 21.30158691 1.79467773 22.36450195 C1.90161242 25.10748258 1.90161242 25.10748258 3 28 C2.67 28.33 2.34 28.66 2 29 C1.76636119 30.84891946 1.58696365 32.70488031 1.4375 34.5625 C1.35371094 35.57441406 1.26992188 36.58632813 1.18359375 37.62890625 C1.09271484 38.80259766 1.09271484 38.80259766 1 40 C0.67 40 0.34 40 0 40 C0 26.8 0 13.6 0 0 Z " fill="#1EBAE3" transform="translate(298,255)"/>
<path d="M0 0 C1.65 0 3.3 0 5 0 C5 0.66 5 1.32 5 2 C5.66 2.66 6.32 3.32 7 4 C6.67 4.33 6.34 4.66 6 5 C12.93 5.33 19.86 5.66 27 6 C27 6.33 27 6.66 27 7 C18.75 7 10.5 7 2 7 C2 5.02 2 3.04 2 1 C1.34 0.67 0.68 0.34 0 0 Z " fill="#19A6EA" transform="translate(235,269)"/>
<path d="M0 0 C0.66 0 1.32 0 2 0 C4.49336211 3.74004317 4.25481228 6.62561609 4.1953125 10.94921875 C4.1924826 11.72183548 4.18965271 12.49445221 4.18673706 13.29048157 C4.17554878 15.75631243 4.15044703 18.22177906 4.125 20.6875 C4.11496843 22.36002079 4.10584289 24.03254728 4.09765625 25.70507812 C4.07561392 29.80352559 4.04109363 33.90170106 4 38 C3.67 38 3.34 38 3 38 C2.505 20.675 2.505 20.675 2 3 C1.01 2.67 0.02 2.34 -1 2 C-0.67 1.34 -0.34 0.68 0 0 Z " fill="#3A76EB" transform="translate(204,215)"/>
<path d="M0 0 C0.70245031 2.18540096 1.11907976 3.56833588 0.5 5.8125 C-0.22879763 9.00098962 0.44802485 11.81081026 1 15 C0.01 15 -0.98 15 -2 15 C-2.66 12.03 -3.32 9.06 -4 6 C-3.34 6 -2.68 6 -2 6 C-2 5.34 -2 4.68 -2 4 C-2.66 4 -3.32 4 -4 4 C-4 3.01 -4 2.02 -4 1 C-2 0 -2 0 0 0 Z " fill="#16160F" transform="translate(29,329)"/>
<path d="M0 0 C0.66 0 1.32 0 2 0 C2 7.59 2 15.18 2 23 C1.34 23 0.68 23 0 23 C0 22.34 0 21.68 0 21 C-0.66 21 -1.32 21 -2 21 C-1.01 10.605 -1.01 10.605 0 0 Z " fill="#272814" transform="translate(28,241)"/>
<path d="M0 0 C0.33 0 0.66 0 1 0 C1.19585135 2.39541268 1.38192107 4.79092774 1.5625 7.1875 C1.61857422 7.86103516 1.67464844 8.53457031 1.73242188 9.22851562 C2.00963763 13.017131 1.96511161 16.31827794 1 20 C0.34 19.67 -0.32 19.34 -1 19 C-1.484375 16.26953125 -1.484375 16.26953125 -1.75 12.8125 C-1.84796875 11.68457031 -1.9459375 10.55664062 -2.046875 9.39453125 C-1.99794318 5.85105198 -1.29362891 3.27885175 0 0 Z " fill="#252713" transform="translate(28,204)"/>
<path d="M0 0 C0.05800828 3.60409919 0.09359869 7.20807851 0.125 10.8125 C0.14175781 11.83666016 0.15851563 12.86082031 0.17578125 13.91601562 C0.18222656 14.89892578 0.18867188 15.88183594 0.1953125 16.89453125 C0.20578613 17.80050049 0.21625977 18.70646973 0.22705078 19.63989258 C0 22 0 22 -2 25 C-2.94682273 21.7387217 -2.96397639 19.12493907 -2.5 15.8125 C-1.82837902 10.76259037 -2.3179073 6.0264985 -3 1 C-1 0 -1 0 0 0 Z " fill="#16180B" transform="translate(142,293)"/>
<path d="M0 0 C0.66 0 1.32 0 2 0 C2 6.6 2 13.2 2 20 C0.68 19.34 -0.64 18.68 -2 18 C-1.67 17.2575 -1.34 16.515 -1 15.75 C0.40324139 10.4878448 0.15769562 5.4142163 0 0 Z " fill="#1C130A" transform="translate(347,137)"/>
<path d="M0 0 C0.66 0.33 1.32 0.66 2 1 C1.67 1.99 1.34 2.98 1 4 C1.16666667 6.08333333 1.16666667 6.08333333 2 8 C2.99 8.66 3.98 9.32 5 10 C2.69 10.66 0.38 11.32 -2 12 C-2 8.37 -2 4.74 -2 1 C-1.34 0.67 -0.68 0.34 0 0 Z " fill="#3B45E3" transform="translate(210,272)"/>
<path d="M0 0 C0.33 0 0.66 0 1 0 C1.33 9.24 1.66 18.48 2 28 C0.35 28 -1.3 28 -3 28 C-2.67854004 27.45633789 -2.35708008 26.91267578 -2.02587891 26.35253906 C-0.80794247 23.55957488 -0.6830009 21.40069472 -0.5859375 18.359375 C-0.54726563 17.28945313 -0.50859375 16.21953125 -0.46875 15.1171875 C-0.4378125 14.00601562 -0.406875 12.89484375 -0.375 11.75 C-0.33632813 10.62335938 -0.29765625 9.49671875 -0.2578125 8.3359375 C-0.16362664 5.55745452 -0.07800414 2.77897666 0 0 Z " fill="#070915" transform="translate(323,272)"/>
<path d="M0 0 C0.66 0.33 1.32 0.66 2 1 C2.33 6.61 2.66 12.22 3 18 C2.34 18.33 1.68 18.66 1 19 C0.63384906 16.96044851 0.28260721 14.91821752 -0.0625 12.875 C-0.25972656 11.73804688 -0.45695312 10.60109375 -0.66015625 9.4296875 C-0.99756134 6.0246108 -0.72330588 3.32821869 0 0 Z " fill="#252713" transform="translate(27,184)"/>
<path d="M0 0 C0.66 0 1.32 0 2 0 C2 4.95 2 9.9 2 15 C1.34 15 0.68 15 0 15 C-1.37252731 12.25494537 -1.13229255 9.99672588 -1.125 6.9375 C-1.12757813 5.85339844 -1.13015625 4.76929688 -1.1328125 3.65234375 C-1 1 -1 1 0 0 Z " fill="#190706" transform="translate(332,384)"/>
<path d="M0 0 C0.99 0.33 1.98 0.66 3 1 C2.87431641 2.04800781 2.87431641 2.04800781 2.74609375 3.1171875 C2.64425781 4.02726562 2.54242188 4.93734375 2.4375 5.875 C2.33308594 6.77992188 2.22867187 7.68484375 2.12109375 8.6171875 C1.80325148 11.01653057 1.80325148 11.01653057 3 13 C2.67 13.66 2.34 14.32 2 15 C1.34 15 0.68 15 0 15 C-0.84888195 9.62374766 -1.0024305 5.34629602 0 0 Z " fill="#120A08" transform="translate(363,384)"/>
<path d="M0 0 C0.33 0 0.66 0 1 0 C1 3.3 1 6.6 1 10 C-0.98 10.66 -2.96 11.32 -5 12 C-5.33 10.68 -5.66 9.36 -6 8 C-5.38125 7.79375 -4.7625 7.5875 -4.125 7.375 C-1.15346355 5.45224112 -0.86975341 3.33405473 0 0 Z " fill="#11120B" transform="translate(380,181)"/>
<path d="M0 0 C0.33 0 0.66 0 1 0 C1.62529897 5.0247239 2.13012092 9.92528427 2 15 C1.01 14.67 0.02 14.34 -1 14 C-2.15837573 10.52487282 -1.77265943 8.86329714 -1.0625 5.3125 C-0.86785156 4.31863281 -0.67320313 3.32476562 -0.47265625 2.30078125 C-0.31667969 1.54152344 -0.16070313 0.78226562 0 0 Z " fill="#232311" transform="translate(28,284)"/>
<path d="M0 0 C0.99 0.495 0.99 0.495 2 1 C1.98839844 1.83144531 1.97679687 2.66289062 1.96484375 3.51953125 C1.95582031 4.60621094 1.94679687 5.69289063 1.9375 6.8125 C1.92589844 7.89144531 1.91429687 8.97039062 1.90234375 10.08203125 C1.86375234 13.06512169 1.86375234 13.06512169 3 16 C5.00016466 17.20882096 5.00016466 17.20882096 7 18 C4.69 18 2.38 18 0 18 C0 12.06 0 6.12 0 0 Z " fill="#0C070F" transform="translate(221,251)"/>
<path d="M0 0 C2.475 0.495 2.475 0.495 5 1 C4.67 1.99 4.34 2.98 4 4 C3.34 4 2.68 4 2 4 C2 9.28 2 14.56 2 20 C1.67 20 1.34 20 1 20 C0.67 13.4 0.34 6.8 0 0 Z " fill="#17C3E5" transform="translate(285,250)"/>
<path d="M0 0 C0.66 0 1.32 0 2 0 C3.28571429 8.57142857 3.28571429 8.57142857 2 12 C1.01 11.67 0.02 11.34 -1 11 C-0.67 7.37 -0.34 3.74 0 0 Z " fill="#22220F" transform="translate(28,265)"/>
<path d="M0 0 C0 4.95 0 9.9 0 15 C-0.33 15 -0.66 15 -1 15 C-1.12117188 14.21753906 -1.24234375 13.43507813 -1.3671875 12.62890625 C-1.61855469 11.11103516 -1.61855469 11.11103516 -1.875 9.5625 C-2.03742188 8.55316406 -2.19984375 7.54382813 -2.3671875 6.50390625 C-2.57601563 5.67761719 -2.78484375 4.85132813 -3 4 C-3.66 3.67 -4.32 3.34 -5 3 C-1.125 0 -1.125 0 0 0 Z " fill="#20180E" transform="translate(349,371)"/>
<path d="M0 0 C0.99 0.495 0.99 0.495 2 1 C2 2.65 2 4.3 2 6 C2.66 6 3.32 6 4 6 C4.33 6.99 4.66 7.98 5 9 C3.35 9.33 1.7 9.66 0 10 C0 6.7 0 3.4 0 0 Z " fill="#344EE6" transform="translate(208,245)"/>
<path d="M0 0 C0.33 0 0.66 0 1 0 C2.33257403 11.52164009 2.33257403 11.52164009 1 17 C0.67 17 0.34 17 0 17 C-0.19561869 14.9174133 -0.38119313 12.83388144 -0.5625 10.75 C-0.66691406 9.58984375 -0.77132813 8.4296875 -0.87890625 7.234375 C-0.98198087 4.48128523 -0.86213473 2.580018 0 0 Z " fill="#313217" transform="translate(28,311)"/>
<path d="M0 0 C1.43655854 -0.08131463 2.8744483 -0.13933559 4.3125 -0.1875 C5.51326172 -0.23970703 5.51326172 -0.23970703 6.73828125 -0.29296875 C9.47851584 0.06198392 10.29171079 0.89366282 12 3 C11.01 3.33 10.02 3.66 9 4 C9 3.34 9 2.68 9 2 C6.03 2 3.06 2 0 2 C0 1.34 0 0.68 0 0 Z " fill="#395CC8" transform="translate(191,211)"/>
<path d="M0 0 C0.68707555 2.49064888 1 4.37886292 1 7 C0.01 7.33 -0.98 7.66 -2 8 C-2.66 6.02 -3.32 4.04 -4 2 C-2.68 1.34 -1.36 0.68 0 0 Z " fill="#18180D" transform="translate(365,170)"/>
<path d="M0 0 C0.66 0 1.32 0 2 0 C2.33 2.97 2.66 5.94 3 9 C2.01 9 1.02 9 0 9 C0 6.03 0 3.06 0 0 Z " fill="#1C1B0F" transform="translate(27,300)"/>
<path d="M0 0 C0.33 0.66 0.66 1.32 1 2 C1.66 2.33 2.32 2.66 3 3 C2.01 5.64 1.02 8.28 0 11 C-1.125 9.4375 -1.125 9.4375 -2 7 C-1.125 3.25 -1.125 3.25 0 0 Z " fill="#120B07" transform="translate(364,345)"/>
<path d="M0 0 C0.33 1.32 0.66 2.64 1 4 C3.64 4 6.28 4 9 4 C9 4.33 9 4.66 9 5 C0.80743982 5.63019694 0.80743982 5.63019694 -2.5625 3 C-3.2740625 2.01 -3.2740625 2.01 -4 1 C-2.68 0.67 -1.36 0.34 0 0 Z " fill="#3F2FBD" transform="translate(191,299)"/>
<path d="M0 0 C0.99 0 1.98 0 3 0 C3.66 1.98 4.32 3.96 5 6 C3.35 5.67 1.7 5.34 0 5 C-0.33 4.01 -0.66 3.02 -1 2 C-0.67 1.34 -0.34 0.68 0 0 Z " fill="#0DB1FB" transform="translate(240,269)"/>
<path d="M0 0 C0.99 0 1.98 0 3 0 C2.67 3.63 2.34 7.26 2 11 C1.67 11 1.34 11 1 11 C0.67 7.37 0.34 3.74 0 0 Z " fill="#3966FB" transform="translate(217,253)"/>
<path d="M0 0 C0.99 0 1.98 0 3 0 C2.67 3.63 2.34 7.26 2 11 C1.67 11 1.34 11 1 11 C0.67 7.37 0.34 3.74 0 0 Z " fill="#04BFF9" transform="translate(252,248)"/>
<path d="M0 0 C0 2.64 0 5.28 0 8 C-0.66 8 -1.32 8 -2 8 C-2.12375 7.195625 -2.2475 6.39125 -2.375 5.5625 C-2.684375 4.2940625 -2.684375 4.2940625 -3 3 C-3.66 2.67 -4.32 2.34 -5 2 C-1.125 0 -1.125 0 0 0 Z " fill="#190E08" transform="translate(166,154)"/>
<path d="M0 0 C0.33 0 0.66 0 1 0 C1.05410687 1.77049689 1.09284119 3.54146849 1.125 5.3125 C1.14820313 6.29863281 1.17140625 7.28476562 1.1953125 8.30078125 C1 11 1 11 -1 14 C-2.59789351 9.04653013 -1.28306814 4.86717585 0 0 Z " fill="#2C2D0F" transform="translate(141,304)"/>
<path d="M0 0 C0 0.66 0 1.32 0 2 C-0.66 2 -1.32 2 -2 2 C-2 2.66 -2 3.32 -2 4 C-5 3 -5 3 -7 2 C-7 1.34 -7 0.68 -7 0 C-4.3333581 -1.33332095 -2.83319697 -0.67102033 0 0 Z " fill="#03CEE2" transform="translate(295,274)"/>
<path d="M0 0 C3.96 0 7.92 0 12 0 C12 0.99 12 1.98 12 3 C6.06 2.01 6.06 2.01 0 1 C0 0.67 0 0.34 0 0 Z " fill="#0F141D" transform="translate(277,239)"/>
<path d="M0 0 C0.66 0.33 1.32 0.66 2 1 C2.40729228 3.32156597 2.74438677 5.6568787 3 8 C2.01 8 1.02 8 0 8 C-1.125 2.25 -1.125 2.25 0 0 Z " fill="#200D0A" transform="translate(27,336)"/>
<path d="M0 0 C1.98 0.99 1.98 0.99 4 2 C4 3.65 4 5.3 4 7 C3.01 7.495 3.01 7.495 2 8 C0 6 0 6 -0.125 2.875 C-0.08375 1.92625 -0.0425 0.9775 0 0 Z " fill="#0B0908" transform="translate(27,200)"/>
<path d="M0 0 C0.99 0.33 1.98 0.66 3 1 C2.34 2.98 1.68 4.96 1 7 C0.67 6.34 0.34 5.68 0 5 C-0.66 5 -1.32 5 -2 5 C-1.34 3.35 -0.68 1.7 0 0 Z " fill="#15170E" transform="translate(363,163)"/>
<path d="M0 0 C0.66 0.66 1.32 1.32 2 2 C1.96712417 4.72869407 1.43602229 7.2966618 1 10 C0.34 9.67 -0.32 9.34 -1 9 C-1 8.34 -1 7.68 -1 7 C-1.66 6.67 -2.32 6.34 -3 6 C-2.34 5.67 -1.68 5.34 -1 5 C-0.34444881 2.47266765 -0.34444881 2.47266765 0 0 Z " fill="#110505" transform="translate(380,218)"/>
</svg>
